<svg width="455" height="260" viewBox="0 0 455 260" fill="none" xmlns="http://www.w3.org/2000/svg">
<path d="M73.6 92.7V97H0V92.7H22.2C16.9333 89.5667 12.7667 85.3 9.7 79.9C6.7 74.5 5.2 68.4 5.2 61.6C5.2 51.3333 8.73333 42.7333 15.8 35.8C22.9333 28.8667 31.9 25.4 42.7 25.4C53.5667 25.4 62.6333 29.4 69.9 37.4L62.4 45.6C59.0667 42.4 55.9 40.1667 52.9 38.9C49.9667 37.6333 46.5 37 42.5 37C35.4333 37 29.5 39.3 24.7 43.9C19.9 48.4333 17.5 54.2667 17.5 61.4C17.5 68.4667 19.8667 74.4 24.6 79.2C29.4 83.9333 35.0667 86.3 41.6 86.3C45.6667 86.3 49.1667 85.6333 52.1 84.3C55.0333 82.9 58.1 80.7 61.3 77.7L68.9 85.5C65.9667 88.7 63.1667 91.1 60.5 92.7H73.6ZM157.533 92.7V97H135.233L128.233 81.1H93.2328L86.2328 97H63.9328V92.7H75.5328L104.433 27.1H117.033L145.933 92.7H157.533ZM123.433 70.2L110.733 41.4L98.0328 70.2H123.433ZM246.152 92.7V97H224.652V42.4L200.252 90.9H193.652L169.352 42.4V97H147.852V92.7H157.552V27.1H175.952L197.052 71L218.152 27.1H236.452V92.7H246.152ZM314.591 92.7V97H246.191V92.7H255.891V27.1H279.891C290.491 27.1 298.225 29.1333 303.091 33.2C307.958 37.2667 310.391 43.5333 310.391 52C310.391 60.4667 307.891 66.6667 302.891 70.6C297.958 74.5333 290.358 76.5 280.091 76.5H267.691V92.7H314.591ZM281.391 65.8C287.925 65.8 292.358 64.5667 294.691 62.1C297.091 59.5667 298.291 55.9 298.291 51.1C298.291 46.2333 296.791 42.8 293.791 40.8C290.791 38.8 286.091 37.8 279.691 37.8H267.691V65.8H281.391ZM391.351 92.7V97H314.551V92.7H335.251C327.317 87.1667 323.351 78.4 323.351 66.4V27.1H335.151V65.9C335.151 72.3 336.751 77.3667 339.951 81.1C343.151 84.8333 347.484 86.7 352.951 86.7C358.417 86.7 362.751 84.8333 365.951 81.1C369.151 77.3667 370.751 72.3 370.751 65.9V27.1H382.551V66.4C382.551 78.4667 378.551 87.2333 370.551 92.7H391.351ZM454.309 92.7V97H391.309V92.7H404.109C400.909 91.0333 397.975 88.9667 395.309 86.5L402.709 77.6C409.775 83.7333 417.109 86.8 424.709 86.8C428.509 86.8 431.509 86 433.709 84.4C435.975 82.7333 437.109 80.5667 437.109 77.9C437.109 75.1667 436.042 73.0667 433.909 71.6C431.842 70.0667 428.242 68.7 423.109 67.5C417.975 66.2333 414.075 65.1 411.409 64.1C408.742 63.0333 406.375 61.6667 404.309 60C400.175 56.8667 398.109 52.0667 398.109 45.6C398.109 39.1333 400.442 34.1667 405.109 30.7C409.842 27.1667 415.675 25.4 422.609 25.4C427.075 25.4 431.509 26.1333 435.909 27.6C440.309 29.0667 444.109 31.1333 447.309 33.8L441.009 42.7C438.942 40.8333 436.142 39.3 432.609 38.1C429.075 36.9 425.575 36.3 422.109 36.3C418.709 36.3 415.909 37 413.709 38.4C411.509 39.8 410.409 41.9333 410.409 44.8C410.409 47.6 411.509 49.7667 413.709 51.3C415.909 52.7667 420.575 54.3667 427.709 56.1C434.909 57.8333 440.309 60.2667 443.909 63.4C447.575 66.5333 449.409 70.9333 449.409 76.6C449.409 83.4667 446.875 88.8333 441.809 92.7H454.309Z" fill="white"/>
<path d="M87.6807 148.355C97.6904 148.355 102.695 146.695 102.695 143.375C102.695 139.957 98.8867 137.882 91.2695 137.149C89.707 137.003 87.9736 136.93 86.0693 136.93C84.2139 136.93 82.0166 137.198 79.4775 137.735C76.9873 138.224 74.79 139.103 72.8857 140.372C71.0303 141.642 70.2979 143.131 70.6885 144.84L66.3672 145.865C66.0742 144.498 65.3906 143.595 64.3164 143.155C63.2422 142.667 61.5088 142.423 59.1162 142.423H35.752C32.7246 142.423 30.1123 143.277 27.915 144.986L26.7432 143.521C28.8916 141.861 30.3076 139.615 30.9912 136.783C31.6748 133.902 32.8223 131.363 34.4336 129.166C36.0449 126.92 37.9248 125.04 40.0732 123.526C42.2705 121.964 44.8584 120.621 47.8369 119.498C50.8154 118.375 53.7939 117.496 56.7725 116.861C59.751 116.178 63.0957 115.641 66.8066 115.25C72.8125 114.615 78.4277 114.298 83.6523 114.298C88.9258 114.298 93.0273 114.396 95.957 114.591C98.8867 114.737 102.256 115.055 106.064 115.543C109.922 116.031 113.56 116.666 116.978 117.447C120.396 118.229 123.789 119.303 127.158 120.67C130.576 121.988 133.506 123.551 135.947 125.357C141.465 129.312 144.224 134.513 144.224 140.958C144.224 147.403 141.514 152.53 136.094 156.339C134.189 157.706 131.895 158.414 129.209 158.463V159.781C131.846 159.635 134.165 160.196 136.167 161.466C143.198 165.714 146.714 172.232 146.714 181.021C146.714 191.471 141.489 199.234 131.04 204.312C121.079 209.146 107.212 211.563 89.4385 211.563C74.7412 211.563 63.8525 210.733 56.7725 209.073C48.1787 207.071 41.709 204.312 37.3633 200.797C31.748 196.158 28.2812 190.152 26.9629 182.779C26.4746 179.898 25.1318 177.506 22.9346 175.602L24.1797 174.137C26.3281 175.895 28.916 176.773 31.9434 176.773H59.2627C61.1182 176.773 62.583 176.554 63.6572 176.114C64.7314 175.626 65.5615 174.723 66.1475 173.404L68.9307 174.796C68.3936 176.212 68.2959 177.433 68.6377 178.458C68.9795 179.483 69.7607 180.68 70.9814 182.047C74.3506 185.855 80.0879 187.76 88.1934 187.76C91.3184 187.76 94.3213 187.369 97.2021 186.588C102.622 185.123 105.332 182.755 105.332 179.483C105.332 174.015 99.4238 171.28 87.6074 171.28H63.2178C60.2881 171.28 57.8467 172.257 55.8936 174.21L54.4287 172.672C56.333 170.768 57.2852 168.326 57.2852 165.348V153.775C57.2852 151.139 56.333 148.868 54.4287 146.964L55.8203 145.572C57.6758 147.428 59.9463 148.355 62.6318 148.355H87.0947C87.1924 148.355 87.3877 148.355 87.6807 148.355ZM215.854 213.321L216.733 244.962C216.733 245.792 216.465 246.549 215.928 247.232C215.391 247.916 214.731 248.258 213.95 248.258C213.169 248.258 212.534 247.965 212.046 247.379C211.558 246.793 211.313 246.109 211.313 245.328C211.313 241.227 211.533 235.416 211.973 227.896C212.461 220.426 212.754 214.737 212.852 210.831C193.906 208.585 180.088 202.262 171.396 191.861C164.707 183.854 161.362 173.429 161.362 160.587C161.362 133.683 174.375 117.423 200.4 111.808C208.994 109.952 218.833 109.024 229.917 109.024C248.423 109.024 263.486 112.418 275.107 119.205C281.992 123.258 286.509 128.849 288.657 135.978C289.39 139.054 290.708 141.349 292.612 142.862L291.44 144.474C289.487 142.96 287.021 142.203 284.043 142.203C281.113 142.203 278.013 142.301 274.741 142.496C271.519 142.691 267.832 142.984 263.682 143.375C259.58 143.717 256.626 143.961 254.819 144.107C253.013 144.254 251.597 144.596 250.571 145.133C249.595 145.621 248.789 146.5 248.154 147.77L245.737 146.524C246.274 145.548 246.543 144.571 246.543 143.595C246.543 140.567 244.565 138.053 240.61 136.051C236.704 134.049 231.553 133.048 225.156 133.048C218.809 133.048 213.657 134.879 209.702 138.541C205.747 142.154 203.232 147.159 202.158 153.556C222.471 152.188 232.92 151.505 233.506 151.505H238.999C264.097 151.505 279.941 156.998 286.533 167.984C288.584 171.354 289.609 175.162 289.609 179.41C289.609 183.658 288.779 187.467 287.119 190.836C285.459 194.205 283.262 197.013 280.527 199.259C277.842 201.456 274.57 203.36 270.713 204.972C263.877 207.804 255.747 209.732 246.323 210.758C246.323 215.25 246.909 221.939 248.081 230.826C249.253 239.713 249.839 245.621 249.839 248.551C249.839 251.48 249.473 253.507 248.74 254.63C248.057 255.753 247.031 256.314 245.664 256.314C244.297 256.314 243.247 255.753 242.515 254.63C241.782 253.507 241.416 251.676 241.416 249.137C241.416 246.598 241.807 241.617 242.588 234.195C243.418 226.773 243.833 221.939 243.833 219.693C243.833 217.496 243.784 216.08 243.687 215.445C243.589 214.859 243.491 214.322 243.394 213.834C243.345 213.395 243.149 213.004 242.808 212.662C242.466 212.32 242.222 212.027 242.075 211.783C241.978 211.588 241.636 211.417 241.05 211.271C240.464 211.124 240.073 211.002 239.878 210.904C239.731 210.855 239.219 210.807 238.34 210.758C237.51 210.758 236.997 210.758 236.802 210.758H234.897C232.212 210.758 230.039 211.026 228.379 211.563C226.719 212.149 225.889 212.784 225.889 213.468C225.889 215.714 226.182 219.034 226.768 223.429C227.402 227.872 227.72 231.437 227.72 234.122C227.72 236.856 226.768 238.224 224.863 238.224C223.008 238.224 222.08 236.881 222.08 234.195C222.08 231.559 222.422 227.994 223.105 223.502C223.789 219.059 224.131 215.86 224.131 213.907C224.131 212.003 223.496 211.051 222.227 211.051C217.979 211.051 215.854 211.808 215.854 213.321ZM202.817 170.182C205.796 180.875 214.097 186.222 227.72 186.222C241.343 186.222 248.154 183.536 248.154 178.165C248.154 172.013 242.954 168.937 232.554 168.937C231.333 168.937 221.421 169.352 202.817 170.182ZM369.224 220.865L369.663 213.834C369.663 212.613 369.077 211.661 367.905 210.978C366.782 210.343 365.537 210.025 364.17 210.025C362.803 210.025 361.558 210.392 360.435 211.124C359.36 211.856 358.823 212.906 358.823 214.273V231.119C358.823 233.561 359.336 237.149 360.361 241.886C361.387 246.622 361.899 249.991 361.899 251.993C361.899 254.044 361.46 255.729 360.581 257.047C359.702 258.365 358.481 259.024 356.919 259.024C355.405 259.024 354.258 258.341 353.477 256.974C352.744 255.606 352.378 253.824 352.378 251.627C352.378 249.43 352.915 245.621 353.989 240.201C355.112 234.781 355.674 230.582 355.674 227.604C355.674 215.543 353.452 209.513 349.009 209.513C340.073 209.513 332.188 207.34 325.352 202.994C318.516 198.6 313.291 192.643 309.678 185.123C306.064 177.555 304.258 169.474 304.258 160.88C304.258 152.237 305.405 144.938 307.7 138.98C310.044 132.975 313.145 128.092 317.002 124.332C320.859 120.523 325.522 117.398 330.991 114.957C336.46 112.467 342.124 110.733 347.983 109.757C353.843 108.78 360.166 108.292 366.953 108.292C373.74 108.292 380.063 108.78 385.923 109.757C391.782 110.733 397.446 112.442 402.915 114.884C408.384 117.325 413.047 120.45 416.904 124.259C420.762 128.067 423.838 132.975 426.133 138.98C428.428 144.938 429.575 151.749 429.575 159.415C429.575 175.04 425.498 187.149 417.344 195.743C409.189 204.288 397.715 209.537 382.92 211.49C382.773 211.734 382.7 212.271 382.7 213.102L382.993 217.13C382.993 219.62 382.31 220.865 380.942 220.865C379.575 220.865 378.892 219.669 378.892 217.276L379.185 213.175C379.185 211.71 378.11 210.978 375.962 210.978C375.767 211.417 375.669 212.247 375.669 213.468L376.108 220.572C376.108 222.037 375.84 223.453 375.303 224.82C374.766 226.188 373.862 226.871 372.593 226.871C370.347 226.871 369.224 224.869 369.224 220.865ZM345.054 159.488C345.054 177.359 352.354 186.295 366.953 186.295C381.602 186.295 388.926 177.359 388.926 159.488C388.926 151.285 387.046 145.011 383.286 140.665C379.526 136.319 374.082 134.146 366.953 134.146C359.873 134.146 354.453 136.319 350.693 140.665C346.934 145.011 345.054 151.285 345.054 159.488Z" fill="white"/>
</svg>
